<svg width="18" height="18" viewBox="0 0 18 18" fill="none" xmlns="http://www.w3.org/2000/svg">
<rect width="18" height="18" rx="2" fill="#FF0000"/>
<path d="M6.21143 13.6H11.8L8.28571 5.32L4.54857 14.1143H4L8.28571 4L12.5714 14.1143H6.21143V13.6Z" fill="black"/>
<path d="M6.50554 13.7969V12.9398H5.64839V13.7969H6.50554ZM12.0941 13.7969V14.6542H13.3891L12.8831 13.462L12.0941 13.7969ZM8.57982 5.51696L9.36884 5.18208L8.58031 3.32422L7.79095 5.18173L8.57982 5.51696ZM4.84268 14.3112V15.1683H5.40976L5.63155 14.6465L4.84268 14.3112ZM4.29411 14.3112L3.5049 13.9768L3 15.1683H4.29411V14.3112ZM8.57982 4.19696L9.36904 3.86255L8.57982 2L7.79061 3.86255L8.57982 4.19696ZM12.8655 14.3112V15.1683H14.1597L13.6548 13.9768L12.8655 14.3112ZM6.50554 14.3112H5.64839V15.1683H6.50554V14.3112ZM6.50554 14.6542H12.0941V12.9398H6.50554V14.6542ZM12.8831 13.462L9.36884 5.18208L7.79081 5.85185L11.3051 14.1318L12.8831 13.462ZM7.79095 5.18173L4.05382 13.976L5.63155 14.6465L9.36869 5.8522L7.79095 5.18173ZM4.84268 13.4542H4.29411V15.1683H4.84268V13.4542ZM5.08333 14.6456L9.36904 4.53138L7.79061 3.86255L3.5049 13.9768L5.08333 14.6456ZM7.79061 4.53138L12.0763 14.6456L13.6548 13.9768L9.36904 3.86255L7.79061 4.53138ZM12.8655 13.4542H6.50554V15.1683H12.8655V13.4542ZM7.36268 14.3112V13.7969H5.64839V14.3112H7.36268Z" fill="white"/>
<path d="M6.21143 13.6H11.8L8.28571 5.32L4.54857 14.1143H4L8.28571 4L12.5714 14.1143H6.21143V13.6Z" fill="#FF0000"/>
</svg>
