<svg width="120" height="11" viewBox="0 0 120 11" fill="none" xmlns="http://www.w3.org/2000/svg">
<mask id="path-1-outside-1_100_9841" maskUnits="userSpaceOnUse" x="-1" y="-1" width="122" height="12" fill="black">
<rect fill="white" x="-1" y="-1" width="122" height="12"/>
<path d="M0.579064 1.04H0.939064V8H0.579064V1.04ZM5.24378 7.268C4.81178 6.7 4.59578 5.784 4.59578 4.52C4.59578 3.256 4.81178 2.34 5.24378 1.772C5.67578 1.204 6.39178 0.92 7.39178 0.92C8.39178 0.92 9.11178 1.196 9.55178 1.748L9.28778 1.988C8.93578 1.516 8.30378 1.28 7.39178 1.28C6.99178 1.28 6.65578 1.324 6.38378 1.412C6.11178 1.492 5.85978 1.648 5.62778 1.88C5.40378 2.104 5.23578 2.436 5.12378 2.876C5.01178 3.308 4.95578 3.856 4.95578 4.52C4.95578 5.184 5.01178 5.736 5.12378 6.176C5.23578 6.608 5.40378 6.94 5.62778 7.172C5.85978 7.396 6.11178 7.552 6.38378 7.64C6.65578 7.72 6.99178 7.76 7.39178 7.76C8.30378 7.76 8.93578 7.524 9.28778 7.052L9.55178 7.292C9.11178 7.844 8.39178 8.12 7.39178 8.12C6.39178 8.12 5.67578 7.836 5.24378 7.268ZM16.5251 1.412C16.2531 1.324 15.9171 1.28 15.5171 1.28C15.1171 1.28 14.7811 1.324 14.5091 1.412C14.2371 1.492 13.9851 1.648 13.7531 1.88C13.5291 2.104 13.3611 2.436 13.2491 2.876C13.1371 3.308 13.0811 3.856 13.0811 4.52C13.0811 5.184 13.1371 5.736 13.2491 6.176C13.3611 6.608 13.5291 6.94 13.7531 7.172C13.9851 7.396 14.2371 7.552 14.5091 7.64C14.7811 7.72 15.1171 7.76 15.5171 7.76C15.9171 7.76 16.2531 7.72 16.5251 7.64C16.7971 7.552 17.0451 7.396 17.2691 7.172C17.5011 6.94 17.6731 6.608 17.7851 6.176C17.8971 5.736 17.9531 5.184 17.9531 4.52C17.9531 3.856 17.8971 3.308 17.7851 2.876C17.6731 2.436 17.5011 2.104 17.2691 1.88C17.0451 1.648 16.7971 1.492 16.5251 1.412ZM17.6651 7.268C17.2331 7.836 16.5171 8.12 15.5171 8.12C14.5171 8.12 13.8011 7.836 13.3691 7.268C12.9371 6.7 12.7211 5.784 12.7211 4.52C12.7211 3.256 12.9371 2.34 13.3691 1.772C13.8011 1.204 14.5171 0.92 15.5171 0.92C16.5171 0.92 17.2331 1.204 17.6651 1.772C18.0971 2.34 18.3131 3.256 18.3131 4.52C18.3131 5.784 18.0971 6.7 17.6651 7.268ZM21.9784 8V1.04H22.3384L26.2504 7.34V1.04H26.6104V8H26.2504L22.3384 1.688V8H21.9784ZM31.2085 7.64H35.1205L32.6605 1.844L30.0445 8H29.6605L32.6605 0.92L35.6605 8H31.2085V7.64ZM41.6375 4.508L43.2695 8H42.8735L41.1935 4.4C41.2095 4.392 41.2775 4.36 41.3975 4.304C41.5255 4.24 41.6135 4.196 41.6615 4.172C41.7095 4.14 41.7895 4.088 41.9015 4.016C42.0135 3.944 42.0975 3.876 42.1535 3.812C42.2095 3.74 42.2695 3.66 42.3335 3.572C42.4055 3.476 42.4575 3.372 42.4895 3.26C42.5215 3.14 42.5375 3.012 42.5375 2.876C42.5375 2.372 42.2975 2 41.8175 1.76C41.3375 1.52 40.7415 1.4 40.0295 1.4H39.0695V8H38.7095V1.04H40.0295C40.9735 1.04 41.6855 1.204 42.1655 1.532C42.6535 1.86 42.8975 2.308 42.8975 2.876C42.8975 3.244 42.7735 3.572 42.5255 3.86C42.2775 4.14 41.9815 4.356 41.6375 4.508ZM51.077 1.04V1.4H48.557V8H48.197V1.4H45.677V1.04H51.077ZM55.8678 8H54.1398V1.04H55.4598C56.4038 1.04 57.1158 1.204 57.5958 1.532C58.0838 1.86 58.3278 2.308 58.3278 2.876C58.3278 3.556 58.0278 4.048 57.4278 4.352C57.8678 4.504 58.1958 4.732 58.4118 5.036C58.6278 5.332 58.7358 5.676 58.7358 6.068C58.7358 6.644 58.4958 7.112 58.0158 7.472C57.5438 7.824 56.8278 8 55.8678 8ZM55.8678 7.64C56.5718 7.64 57.1638 7.512 57.6438 7.256C58.1318 7 58.3758 6.604 58.3758 6.068C58.3758 5.82 58.2838 5.552 58.0998 5.264C57.9158 4.968 57.6318 4.752 57.2478 4.616L56.6238 4.4L57.1998 4.1C57.3998 3.996 57.5758 3.84 57.7278 3.632C57.8878 3.416 57.9678 3.164 57.9678 2.876C57.9678 2.372 57.7278 2 57.2478 1.76C56.7678 1.52 56.1718 1.4 55.4598 1.4H54.4998V7.64H55.8678ZM65.7574 1.412C65.4854 1.324 65.1494 1.28 64.7494 1.28C64.3494 1.28 64.0134 1.324 63.7414 1.412C63.4694 1.492 63.2174 1.648 62.9854 1.88C62.7614 2.104 62.5934 2.436 62.4814 2.876C62.3694 3.308 62.3134 3.856 62.3134 4.52C62.3134 5.184 62.3694 5.736 62.4814 6.176C62.5934 6.608 62.7614 6.94 62.9854 7.172C63.2174 7.396 63.4694 7.552 63.7414 7.64C64.0134 7.72 64.3494 7.76 64.7494 7.76C65.1494 7.76 65.4854 7.72 65.7574 7.64C66.0294 7.552 66.2774 7.396 66.5014 7.172C66.7334 6.94 66.9054 6.608 67.0174 6.176C67.1294 5.736 67.1854 5.184 67.1854 4.52C67.1854 3.856 67.1294 3.308 67.0174 2.876C66.9054 2.436 66.7334 2.104 66.5014 1.88C66.2774 1.648 66.0294 1.492 65.7574 1.412ZM66.8974 7.268C66.4654 7.836 65.7494 8.12 64.7494 8.12C63.7494 8.12 63.0334 7.836 62.6014 7.268C62.1694 6.7 61.9534 5.784 61.9534 4.52C61.9534 3.256 62.1694 2.34 62.6014 1.772C63.0334 1.204 63.7494 0.92 64.7494 0.92C65.7494 0.92 66.4654 1.204 66.8974 1.772C67.3294 2.34 67.5454 3.256 67.5454 4.52C67.5454 5.784 67.3294 6.7 66.8974 7.268ZM71.8468 7.64H75.7588L73.2988 1.844L70.6828 8H70.2988L73.2988 0.92L76.2988 8H71.8468V7.64ZM82.2758 4.508L83.9078 8H83.5118L81.8318 4.4C81.8478 4.392 81.9158 4.36 82.0358 4.304C82.1638 4.24 82.2518 4.196 82.2998 4.172C82.3478 4.14 82.4278 4.088 82.5398 4.016C82.6518 3.944 82.7358 3.876 82.7918 3.812C82.8478 3.74 82.9078 3.66 82.9718 3.572C83.0438 3.476 83.0958 3.372 83.1278 3.26C83.1598 3.14 83.1758 3.012 83.1758 2.876C83.1758 2.372 82.9358 2 82.4558 1.76C81.9758 1.52 81.3798 1.4 80.6678 1.4H79.7078V8H79.3478V1.04H80.6678C81.6118 1.04 82.3238 1.204 82.8038 1.532C83.2918 1.86 83.5358 2.308 83.5358 2.876C83.5358 3.244 83.4118 3.572 83.1638 3.86C82.9158 4.14 82.6198 4.356 82.2758 4.508ZM88.1273 8H87.2153V1.04H88.1273C89.3113 1.04 90.2553 1.352 90.9593 1.976C91.6633 2.6 92.0153 3.448 92.0153 4.52C92.0153 5.592 91.6633 6.44 90.9593 7.064C90.2553 7.688 89.3113 8 88.1273 8ZM88.1273 7.64C89.2073 7.64 90.0633 7.364 90.6953 6.812C91.3353 6.26 91.6553 5.496 91.6553 4.52C91.6553 3.544 91.3353 2.78 90.6953 2.228C90.0633 1.676 89.2073 1.4 88.1273 1.4H87.5753V7.64H88.1273ZM95.3361 7.304H96.1281V8H95.3361V7.304ZM101.716 4.244L103.876 8H103.456L101.5 4.616L99.5437 8H99.1237L101.284 4.244L99.4357 1.04H99.8557L101.5 3.884L103.144 1.04H103.564L101.716 4.244ZM107.488 1.04H112.132L109.312 7.7V10.4H108.952V7.7L106.132 1.04H106.516L109.132 7.196L111.592 1.4H107.488V1.04ZM118.35 1.4H114.606V1.04H118.974L115.158 7.64H119.022V8H114.534L118.35 1.4Z"/>
</mask>
<path d="M0.579064 1.04H0.939064V8H0.579064V1.04ZM5.24378 7.268C4.81178 6.7 4.59578 5.784 4.59578 4.52C4.59578 3.256 4.81178 2.34 5.24378 1.772C5.67578 1.204 6.39178 0.92 7.39178 0.92C8.39178 0.92 9.11178 1.196 9.55178 1.748L9.28778 1.988C8.93578 1.516 8.30378 1.28 7.39178 1.28C6.99178 1.28 6.65578 1.324 6.38378 1.412C6.11178 1.492 5.85978 1.648 5.62778 1.88C5.40378 2.104 5.23578 2.436 5.12378 2.876C5.01178 3.308 4.95578 3.856 4.95578 4.52C4.95578 5.184 5.01178 5.736 5.12378 6.176C5.23578 6.608 5.40378 6.94 5.62778 7.172C5.85978 7.396 6.11178 7.552 6.38378 7.64C6.65578 7.72 6.99178 7.76 7.39178 7.76C8.30378 7.76 8.93578 7.524 9.28778 7.052L9.55178 7.292C9.11178 7.844 8.39178 8.12 7.39178 8.12C6.39178 8.12 5.67578 7.836 5.24378 7.268ZM16.5251 1.412C16.2531 1.324 15.9171 1.28 15.5171 1.28C15.1171 1.28 14.7811 1.324 14.5091 1.412C14.2371 1.492 13.9851 1.648 13.7531 1.88C13.5291 2.104 13.3611 2.436 13.2491 2.876C13.1371 3.308 13.0811 3.856 13.0811 4.52C13.0811 5.184 13.1371 5.736 13.2491 6.176C13.3611 6.608 13.5291 6.94 13.7531 7.172C13.9851 7.396 14.2371 7.552 14.5091 7.64C14.7811 7.72 15.1171 7.76 15.5171 7.76C15.9171 7.76 16.2531 7.72 16.5251 7.64C16.7971 7.552 17.0451 7.396 17.2691 7.172C17.5011 6.94 17.6731 6.608 17.7851 6.176C17.8971 5.736 17.9531 5.184 17.9531 4.52C17.9531 3.856 17.8971 3.308 17.7851 2.876C17.6731 2.436 17.5011 2.104 17.2691 1.88C17.0451 1.648 16.7971 1.492 16.5251 1.412ZM17.6651 7.268C17.2331 7.836 16.5171 8.12 15.5171 8.12C14.5171 8.12 13.8011 7.836 13.3691 7.268C12.9371 6.7 12.7211 5.784 12.7211 4.52C12.7211 3.256 12.9371 2.34 13.3691 1.772C13.8011 1.204 14.5171 0.92 15.5171 0.92C16.5171 0.92 17.2331 1.204 17.6651 1.772C18.0971 2.34 18.3131 3.256 18.3131 4.52C18.3131 5.784 18.0971 6.7 17.6651 7.268ZM21.9784 8V1.04H22.3384L26.2504 7.34V1.04H26.6104V8H26.2504L22.3384 1.688V8H21.9784ZM31.2085 7.64H35.1205L32.6605 1.844L30.0445 8H29.6605L32.6605 0.92L35.6605 8H31.2085V7.64ZM41.6375 4.508L43.2695 8H42.8735L41.1935 4.4C41.2095 4.392 41.2775 4.36 41.3975 4.304C41.5255 4.24 41.6135 4.196 41.6615 4.172C41.7095 4.14 41.7895 4.088 41.9015 4.016C42.0135 3.944 42.0975 3.876 42.1535 3.812C42.2095 3.74 42.2695 3.66 42.3335 3.572C42.4055 3.476 42.4575 3.372 42.4895 3.26C42.5215 3.14 42.5375 3.012 42.5375 2.876C42.5375 2.372 42.2975 2 41.8175 1.76C41.3375 1.52 40.7415 1.4 40.0295 1.4H39.0695V8H38.7095V1.04H40.0295C40.9735 1.04 41.6855 1.204 42.1655 1.532C42.6535 1.86 42.8975 2.308 42.8975 2.876C42.8975 3.244 42.7735 3.572 42.5255 3.86C42.2775 4.14 41.9815 4.356 41.6375 4.508ZM51.077 1.04V1.4H48.557V8H48.197V1.4H45.677V1.04H51.077ZM55.8678 8H54.1398V1.04H55.4598C56.4038 1.04 57.1158 1.204 57.5958 1.532C58.0838 1.86 58.3278 2.308 58.3278 2.876C58.3278 3.556 58.0278 4.048 57.4278 4.352C57.8678 4.504 58.1958 4.732 58.4118 5.036C58.6278 5.332 58.7358 5.676 58.7358 6.068C58.7358 6.644 58.4958 7.112 58.0158 7.472C57.5438 7.824 56.8278 8 55.8678 8ZM55.8678 7.64C56.5718 7.64 57.1638 7.512 57.6438 7.256C58.1318 7 58.3758 6.604 58.3758 6.068C58.3758 5.82 58.2838 5.552 58.0998 5.264C57.9158 4.968 57.6318 4.752 57.2478 4.616L56.6238 4.4L57.1998 4.1C57.3998 3.996 57.5758 3.84 57.7278 3.632C57.8878 3.416 57.9678 3.164 57.9678 2.876C57.9678 2.372 57.7278 2 57.2478 1.76C56.7678 1.52 56.1718 1.4 55.4598 1.4H54.4998V7.64H55.8678ZM65.7574 1.412C65.4854 1.324 65.1494 1.28 64.7494 1.28C64.3494 1.28 64.0134 1.324 63.7414 1.412C63.4694 1.492 63.2174 1.648 62.9854 1.88C62.7614 2.104 62.5934 2.436 62.4814 2.876C62.3694 3.308 62.3134 3.856 62.3134 4.52C62.3134 5.184 62.3694 5.736 62.4814 6.176C62.5934 6.608 62.7614 6.94 62.9854 7.172C63.2174 7.396 63.4694 7.552 63.7414 7.64C64.0134 7.72 64.3494 7.76 64.7494 7.76C65.1494 7.76 65.4854 7.72 65.7574 7.64C66.0294 7.552 66.2774 7.396 66.5014 7.172C66.7334 6.94 66.9054 6.608 67.0174 6.176C67.1294 5.736 67.1854 5.184 67.1854 4.52C67.1854 3.856 67.1294 3.308 67.0174 2.876C66.9054 2.436 66.7334 2.104 66.5014 1.88C66.2774 1.648 66.0294 1.492 65.7574 1.412ZM66.8974 7.268C66.4654 7.836 65.7494 8.12 64.7494 8.12C63.7494 8.12 63.0334 7.836 62.6014 7.268C62.1694 6.7 61.9534 5.784 61.9534 4.52C61.9534 3.256 62.1694 2.34 62.6014 1.772C63.0334 1.204 63.7494 0.92 64.7494 0.92C65.7494 0.92 66.4654 1.204 66.8974 1.772C67.3294 2.34 67.5454 3.256 67.5454 4.52C67.5454 5.784 67.3294 6.7 66.8974 7.268ZM71.8468 7.64H75.7588L73.2988 1.844L70.6828 8H70.2988L73.2988 0.92L76.2988 8H71.8468V7.64ZM82.2758 4.508L83.9078 8H83.5118L81.8318 4.4C81.8478 4.392 81.9158 4.36 82.0358 4.304C82.1638 4.24 82.2518 4.196 82.2998 4.172C82.3478 4.14 82.4278 4.088 82.5398 4.016C82.6518 3.944 82.7358 3.876 82.7918 3.812C82.8478 3.74 82.9078 3.66 82.9718 3.572C83.0438 3.476 83.0958 3.372 83.1278 3.26C83.1598 3.14 83.1758 3.012 83.1758 2.876C83.1758 2.372 82.9358 2 82.4558 1.76C81.9758 1.52 81.3798 1.4 80.6678 1.4H79.7078V8H79.3478V1.04H80.6678C81.6118 1.04 82.3238 1.204 82.8038 1.532C83.2918 1.86 83.5358 2.308 83.5358 2.876C83.5358 3.244 83.4118 3.572 83.1638 3.86C82.9158 4.14 82.6198 4.356 82.2758 4.508ZM88.1273 8H87.2153V1.04H88.1273C89.3113 1.04 90.2553 1.352 90.9593 1.976C91.6633 2.6 92.0153 3.448 92.0153 4.52C92.0153 5.592 91.6633 6.44 90.9593 7.064C90.2553 7.688 89.3113 8 88.1273 8ZM88.1273 7.64C89.2073 7.64 90.0633 7.364 90.6953 6.812C91.3353 6.26 91.6553 5.496 91.6553 4.52C91.6553 3.544 91.3353 2.78 90.6953 2.228C90.0633 1.676 89.2073 1.4 88.1273 1.4H87.5753V7.64H88.1273ZM95.3361 7.304H96.1281V8H95.3361V7.304ZM101.716 4.244L103.876 8H103.456L101.5 4.616L99.5437 8H99.1237L101.284 4.244L99.4357 1.04H99.8557L101.5 3.884L103.144 1.04H103.564L101.716 4.244ZM107.488 1.04H112.132L109.312 7.7V10.4H108.952V7.7L106.132 1.04H106.516L109.132 7.196L111.592 1.4H107.488V1.04ZM118.35 1.4H114.606V1.04H118.974L115.158 7.64H119.022V8H114.534L118.35 1.4Z" fill="black"/>
<path d="M0.579064 1.04V0.439999H-0.0209359V1.04H0.579064ZM0.939064 1.04H1.53906V0.439999H0.939064V1.04ZM0.939064 8V8.6H1.53906V8H0.939064ZM0.579064 8H-0.0209359V8.6H0.579064V8ZM0.579064 1.64H0.939064V0.439999H0.579064V1.64ZM0.339064 1.04V8H1.53906V1.04H0.339064ZM0.939064 7.4H0.579064V8.6H0.939064V7.4ZM1.17906 8V1.04H-0.0209359V8H1.17906ZM5.24378 7.268L5.72135 6.90478L5.72135 6.90478L5.24378 7.268ZM5.24378 1.772L4.76622 1.40878L4.76621 1.40878L5.24378 1.772ZM9.55178 1.748L9.95539 2.19196L10.3715 1.81372L10.021 1.37401L9.55178 1.748ZM9.28778 1.988L8.80681 2.34669L9.20211 2.87676L9.69139 2.43196L9.28778 1.988ZM6.38378 1.412L6.55308 1.98762L6.56081 1.98535L6.56847 1.98287L6.38378 1.412ZM5.62778 1.88L5.20352 1.45574L5.20352 1.45574L5.62778 1.88ZM5.12378 2.876L5.70459 3.02658L5.70524 3.02401L5.12378 2.876ZM5.12378 6.176L4.54232 6.32401L4.54298 6.32658L5.12378 6.176ZM5.62778 7.172L5.19614 7.58876L5.20345 7.59633L5.21103 7.60364L5.62778 7.172ZM6.38378 7.64L6.19909 8.21087L6.20675 8.21335L6.21448 8.21562L6.38378 7.64ZM9.28778 7.052L9.69139 6.60804L9.20211 6.16324L8.80681 6.69331L9.28778 7.052ZM9.55178 7.292L10.021 7.66599L10.3715 7.22628L9.95539 6.84804L9.55178 7.292ZM5.72135 6.90478C5.40988 6.49526 5.19578 5.7426 5.19578 4.52H3.99578C3.99578 5.8254 4.21368 6.90474 4.76622 7.63122L5.72135 6.90478ZM5.19578 4.52C5.19578 3.2974 5.40988 2.54474 5.72135 2.13522L4.76621 1.40878C4.21368 2.13526 3.99578 3.2146 3.99578 4.52H5.19578ZM5.72135 2.13522C5.99897 1.7702 6.49933 1.52 7.39178 1.52V0.32C6.28423 0.32 5.3526 0.637797 4.76622 1.40878L5.72135 2.13522ZM7.39178 1.52C8.28895 1.52 8.79831 1.76533 9.0826 2.12199L10.021 1.37401C9.42526 0.626668 8.49461 0.32 7.39178 0.32V1.52ZM9.14818 1.30404L8.88418 1.54404L9.69139 2.43196L9.95539 2.19196L9.14818 1.30404ZM9.76876 1.6293C9.25221 0.936659 8.38675 0.68 7.39178 0.68V1.88C8.22082 1.88 8.61936 2.09534 8.80681 2.34669L9.76876 1.6293ZM7.39178 0.68C6.95209 0.68 6.54929 0.727834 6.19909 0.841133L6.56847 1.98287C6.76228 1.92017 7.03148 1.88 7.39178 1.88V0.68ZM6.21448 0.83638C5.83199 0.948878 5.49526 1.16399 5.20352 1.45574L6.05205 2.30426C6.2243 2.13201 6.39158 2.03512 6.55308 1.98762L6.21448 0.83638ZM5.20352 1.45574C4.87713 1.78212 4.67005 2.22622 4.54232 2.72799L5.70524 3.02401C5.80152 2.64578 5.93043 2.42588 6.05205 2.30426L5.20352 1.45574ZM4.54298 2.72542C4.41367 3.2242 4.35578 3.82733 4.35578 4.52H5.55578C5.55578 3.88467 5.60989 3.3918 5.70458 3.02658L4.54298 2.72542ZM4.35578 4.52C4.35578 5.21317 4.41377 5.81898 4.54232 6.32401L5.70524 6.02799C5.60979 5.65302 5.55578 5.15483 5.55578 4.52H4.35578ZM4.54298 6.32658C4.67145 6.82208 4.87797 7.25922 5.19614 7.58876L6.05942 6.75524C5.9296 6.62078 5.80012 6.39392 5.70458 6.02542L4.54298 6.32658ZM5.21103 7.60364C5.50029 7.88293 5.82959 8.09132 6.19909 8.21087L6.56847 7.06913C6.39398 7.01268 6.21927 6.90907 6.04454 6.74036L5.21103 7.60364ZM6.21448 8.21562C6.55887 8.31691 6.95599 8.36 7.39178 8.36V7.16C7.02757 7.16 6.7527 7.12309 6.55308 7.06438L6.21448 8.21562ZM7.39178 8.36C8.38675 8.36 9.25221 8.10334 9.76876 7.41069L8.80681 6.69331C8.61936 6.94466 8.22082 7.16 7.39178 7.16V8.36ZM8.88418 7.49596L9.14818 7.73596L9.95539 6.84804L9.69139 6.60804L8.88418 7.49596ZM9.0826 6.91801C8.79831 7.27467 8.28895 7.52 7.39178 7.52V8.72C8.49461 8.72 9.42526 8.41333 10.021 7.66599L9.0826 6.91801ZM7.39178 7.52C6.49933 7.52 5.99897 7.2698 5.72135 6.90478L4.76621 7.63122C5.3526 8.4022 6.28423 8.72 7.39178 8.72V7.52ZM16.5251 1.412L16.3404 1.98287L16.3481 1.98535L16.3558 1.98762L16.5251 1.412ZM14.5091 1.412L14.6784 1.98762L14.6861 1.98535L14.6938 1.98287L14.5091 1.412ZM13.7531 1.88L13.3288 1.45574L13.3288 1.45574L13.7531 1.88ZM13.2491 2.876L13.8299 3.02658L13.8306 3.02401L13.2491 2.876ZM13.2491 6.176L12.6676 6.32401L12.6683 6.32658L13.2491 6.176ZM13.7531 7.172L13.3215 7.58876L13.3288 7.59633L13.3363 7.60364L13.7531 7.172ZM14.5091 7.64L14.3244 8.21087L14.3321 8.21335L14.3398 8.21562L14.5091 7.64ZM16.5251 7.64L16.6944 8.21562L16.7021 8.21335L16.7098 8.21087L16.5251 7.64ZM17.2691 7.172L17.6934 7.59626L17.6934 7.59626L17.2691 7.172ZM17.7851 6.176L18.3659 6.32658L18.3666 6.32401L17.7851 6.176ZM17.7851 2.876L17.2036 3.02401L17.2043 3.02658L17.7851 2.876ZM17.2691 1.88L16.8375 2.29676L16.8448 2.30433L16.8523 2.31164L17.2691 1.88ZM17.6651 7.268L17.1875 6.90478L17.1875 6.90478L17.6651 7.268ZM13.3691 7.268L13.8467 6.90478L13.8467 6.90478L13.3691 7.268ZM13.3691 1.772L12.8915 1.40878L12.8915 1.40878L13.3691 1.772ZM17.6651 1.772L18.1427 1.40878L18.1427 1.40878L17.6651 1.772ZM16.7098 0.841133C16.3596 0.727834 15.9568 0.68 15.5171 0.68V1.88C15.8774 1.88 16.1466 1.92017 16.3404 1.98287L16.7098 0.841133ZM15.5171 0.68C15.0774 0.68 14.6746 0.727834 14.3244 0.841133L14.6938 1.98287C14.8876 1.92017 15.1568 1.88 15.5171 1.88V0.68ZM14.3398 0.83638C13.9573 0.948878 13.6206 1.16399 13.3288 1.45574L14.1774 2.30426C14.3496 2.13201 14.5169 2.03512 14.6784 1.98762L14.3398 0.83638ZM13.3288 1.45574C13.0024 1.78212 12.7954 2.22622 12.6676 2.72799L13.8306 3.02401C13.9268 2.64578 14.0557 2.42588 14.1774 2.30426L13.3288 1.45574ZM12.6683 2.72542C12.539 3.2242 12.4811 3.82733 12.4811 4.52H13.6811C13.6811 3.88467 13.7352 3.3918 13.8299 3.02658L12.6683 2.72542ZM12.4811 4.52C12.4811 5.21317 12.5391 5.81898 12.6676 6.32401L13.8306 6.02799C13.7351 5.65302 13.6811 5.15483 13.6811 4.52H12.4811ZM12.6683 6.32658C12.7968 6.82208 13.0033 7.25922 13.3215 7.58876L14.1847 6.75524C14.0549 6.62078 13.9254 6.39392 13.8299 6.02542L12.6683 6.32658ZM13.3363 7.60364C13.6256 7.88293 13.9549 8.09132 14.3244 8.21087L14.6938 7.06913C14.5193 7.01268 14.3446 6.90907 14.1699 6.74036L13.3363 7.60364ZM14.3398 8.21562C14.6842 8.31691 15.0813 8.36 15.5171 8.36V7.16C15.1529 7.16 14.878 7.12309 14.6784 7.06438L14.3398 8.21562ZM15.5171 8.36C15.9529 8.36 16.35 8.31691 16.6944 8.21562L16.3558 7.06438C16.1562 7.12309 15.8813 7.16 15.5171 7.16V8.36ZM16.7098 8.21087C17.0815 8.0906 17.4096 7.88003 17.6934 7.59626L16.8448 6.74774C16.6806 6.91197 16.5127 7.0134 16.3404 7.06913L16.7098 8.21087ZM17.6934 7.59626C18.0235 7.26613 18.2363 6.82626 18.3659 6.32658L17.2043 6.02542C17.1098 6.38974 16.9787 6.61387 16.8448 6.74774L17.6934 7.59626ZM18.3666 6.32401C18.4951 5.81898 18.5531 5.21317 18.5531 4.52H17.3531C17.3531 5.15483 17.2991 5.65302 17.2036 6.02799L18.3666 6.32401ZM18.5531 4.52C18.5531 3.82733 18.4952 3.2242 18.3659 2.72542L17.2043 3.02658C17.299 3.3918 17.3531 3.88467 17.3531 4.52H18.5531ZM18.3666 2.72799C18.2378 2.22201 18.0244 1.77519 17.6859 1.44836L16.8523 2.31164C16.9778 2.43281 17.1084 2.64998 17.2036 3.02401L18.3666 2.72799ZM17.7007 1.46324C17.4146 1.1669 17.0792 0.949554 16.6944 0.83638L16.3558 1.98762C16.515 2.03444 16.6756 2.1291 16.8375 2.29676L17.7007 1.46324ZM17.1875 6.90478C16.9099 7.2698 16.4095 7.52 15.5171 7.52V8.72C16.6246 8.72 17.5563 8.4022 18.1427 7.63122L17.1875 6.90478ZM15.5171 7.52C14.6246 7.52 14.1243 7.2698 13.8467 6.90478L12.8915 7.63122C13.4779 8.4022 14.4095 8.72 15.5171 8.72V7.52ZM13.8467 6.90478C13.5352 6.49526 13.3211 5.7426 13.3211 4.52H12.1211C12.1211 5.8254 12.339 6.90474 12.8915 7.63122L13.8467 6.90478ZM13.3211 4.52C13.3211 3.2974 13.5352 2.54474 13.8467 2.13522L12.8915 1.40878C12.339 2.13526 12.1211 3.2146 12.1211 4.52H13.3211ZM13.8467 2.13522C14.1243 1.7702 14.6246 1.52 15.5171 1.52V0.32C14.4095 0.32 13.4779 0.637797 12.8915 1.40878L13.8467 2.13522ZM15.5171 1.52C16.4095 1.52 16.9099 1.7702 17.1875 2.13522L18.1427 1.40878C17.5563 0.637797 16.6246 0.32 15.5171 0.32V1.52ZM17.1875 2.13522C17.499 2.54474 17.7131 3.2974 17.7131 4.52H18.9131C18.9131 3.2146 18.6952 2.13526 18.1427 1.40878L17.1875 2.13522ZM17.7131 4.52C17.7131 5.7426 17.499 6.49526 17.1875 6.90478L18.1427 7.63122C18.6952 6.90474 18.9131 5.8254 18.9131 4.52H17.7131ZM21.9784 8H21.3784V8.6H21.9784V8ZM21.9784 1.04V0.439999H21.3784V1.04H21.9784ZM22.3384 1.04L22.8482 0.723485L22.6721 0.439999H22.3384V1.04ZM26.2504 7.34L25.7407 7.65651L26.8504 9.44365V7.34H26.2504ZM26.2504 1.04V0.439999H25.6504V1.04H26.2504ZM26.6104 1.04H27.2104V0.439999H26.6104V1.04ZM26.6104 8V8.6H27.2104V8H26.6104ZM26.2504 8L25.7404 8.31608L25.9164 8.6H26.2504V8ZM22.3384 1.688L22.8484 1.37192L21.7384 -0.419051V1.688H22.3384ZM22.3384 8V8.6H22.9384V8H22.3384ZM22.5784 8V1.04H21.3784V8H22.5784ZM21.9784 1.64H22.3384V0.439999H21.9784V1.64ZM21.8287 1.35651L25.7407 7.65651L26.7602 7.02349L22.8482 0.723485L21.8287 1.35651ZM26.8504 7.34V1.04H25.6504V7.34H26.8504ZM26.2504 1.64H26.6104V0.439999H26.2504V1.64ZM26.0104 1.04V8H27.2104V1.04H26.0104ZM26.6104 7.4H26.2504V8.6H26.6104V7.4ZM26.7604 7.68392L22.8484 1.37192L21.8284 2.00408L25.7404 8.31608L26.7604 7.68392ZM21.7384 1.688V8H22.9384V1.688H21.7384ZM22.3384 7.4H21.9784V8.6H22.3384V7.4ZM31.2085 7.64V7.04H30.6085V7.64H31.2085ZM35.1205 7.64V8.24H36.027L35.6728 7.40558L35.1205 7.64ZM32.6605 1.844L33.2128 1.60958L32.6608 0.309079L32.1083 1.60934L32.6605 1.844ZM30.0445 8V8.6H30.4415L30.5967 8.23466L30.0445 8ZM29.6605 8L29.1081 7.76591L28.7546 8.6H29.6605V8ZM32.6605 0.92L33.213 0.68591L32.6605 -0.617874L32.1081 0.68591L32.6605 0.92ZM35.6605 8V8.6H36.5664L36.213 7.76591L35.6605 8ZM31.2085 8H30.6085V8.6H31.2085V8ZM31.2085 8.24H35.1205V7.04H31.2085V8.24ZM35.6728 7.40558L33.2128 1.60958L32.1082 2.07842L34.5682 7.87442L35.6728 7.40558ZM32.1083 1.60934L29.4923 7.76534L30.5967 8.23466L33.2127 2.07866L32.1083 1.60934ZM30.0445 7.4H29.6605V8.6H30.0445V7.4ZM30.213 8.23409L33.213 1.15409L32.1081 0.68591L29.1081 7.76591L30.213 8.23409ZM32.1081 1.15409L35.1081 8.23409L36.213 7.76591L33.213 0.68591L32.1081 1.15409ZM35.6605 7.4H31.2085V8.6H35.6605V7.4ZM31.8085 8V7.64H30.6085V8H31.8085ZM41.6375 4.508L41.395 3.95919L40.8345 4.20686L41.094 4.76204L41.6375 4.508ZM43.2695 8V8.6H44.2122L43.8131 7.74596L43.2695 8ZM42.8735 8L42.3298 8.25373L42.4914 8.6H42.8735V8ZM41.1935 4.4L40.9252 3.86335L40.4029 4.12452L40.6498 4.65373L41.1935 4.4ZM41.3975 4.304L41.6513 4.84771L41.6586 4.84428L41.6659 4.84066L41.3975 4.304ZM41.6615 4.172L41.9299 4.70866L41.9633 4.69195L41.9944 4.67123L41.6615 4.172ZM41.9015 4.016L42.226 4.52071L42.226 4.52071L41.9015 4.016ZM42.1535 3.812L42.6051 4.2071L42.6165 4.19405L42.6271 4.18036L42.1535 3.812ZM42.3335 3.572L41.8535 3.21196L41.8483 3.2191L42.3335 3.572ZM42.4895 3.26L43.0665 3.42486L43.0693 3.4146L42.4895 3.26ZM41.8175 1.76L42.0859 1.22334L42.0859 1.22334L41.8175 1.76ZM39.0695 1.4V0.8H38.4695V1.4H39.0695ZM39.0695 8V8.6H39.6695V8H39.0695ZM38.7095 8H38.1095V8.6H38.7095V8ZM38.7095 1.04V0.439999H38.1095V1.04H38.7095ZM42.1655 1.532L41.827 2.0274L41.8308 2.02997L42.1655 1.532ZM42.5255 3.86L42.9747 4.25786L42.9802 4.25151L42.5255 3.86ZM41.094 4.76204L42.726 8.25404L43.8131 7.74596L42.1811 4.25396L41.094 4.76204ZM43.2695 7.4H42.8735V8.6H43.2695V7.4ZM43.4172 7.74627L41.7372 4.14627L40.6498 4.65373L42.3298 8.25373L43.4172 7.74627ZM41.4619 4.93665C41.46 4.93756 41.4624 4.93636 41.4732 4.93122C41.4826 4.92677 41.4954 4.92071 41.512 4.91289C41.5452 4.89729 41.5915 4.87561 41.6513 4.84771L41.1438 3.76029C41.0292 3.81376 40.9506 3.85065 40.9252 3.86335L41.4619 4.93665ZM41.6659 4.84066C41.7939 4.77666 41.8819 4.73266 41.9299 4.70866L41.3932 3.63534C41.3452 3.65934 41.2572 3.70334 41.1292 3.76734L41.6659 4.84066ZM41.9944 4.67123C42.0378 4.64225 42.1141 4.59261 42.226 4.52071L41.5771 3.51129C41.4649 3.58339 41.3812 3.63775 41.3287 3.67277L41.9944 4.67123ZM42.226 4.52071C42.3618 4.4334 42.4973 4.33025 42.6051 4.2071L41.702 3.4169C41.7021 3.41672 41.7 3.41919 41.6947 3.4242C41.6894 3.42917 41.6817 3.43601 41.671 3.44465C41.6493 3.4622 41.6187 3.48452 41.5771 3.51129L42.226 4.52071ZM42.6271 4.18036C42.6878 4.10242 42.7517 4.01716 42.8188 3.9249L41.8483 3.2191C41.7874 3.30284 41.7313 3.37758 41.6799 3.44364L42.6271 4.18036ZM42.8135 3.932C42.9281 3.77921 43.0137 3.60939 43.0664 3.42483L41.9126 3.09517C41.9014 3.13461 41.8829 3.17279 41.8535 3.212L42.8135 3.932ZM43.0693 3.4146C43.1159 3.23964 43.1375 3.05929 43.1375 2.876H41.9375C41.9375 2.96471 41.9271 3.04036 41.9098 3.1054L43.0693 3.4146ZM43.1375 2.876C43.1375 2.52504 43.0526 2.18961 42.8617 1.89372C42.6722 1.6 42.4016 1.38121 42.0859 1.22334L41.5492 2.29666C41.7135 2.37879 41.8029 2.466 41.8534 2.54428C41.9025 2.62039 41.9375 2.72296 41.9375 2.876H43.1375ZM42.0859 1.22334C41.4999 0.930362 40.8055 0.8 40.0295 0.8V2C40.6775 2 41.1752 2.10964 41.5492 2.29666L42.0859 1.22334ZM40.0295 0.8H39.0695V2H40.0295V0.8ZM38.4695 1.4V8H39.6695V1.4H38.4695ZM39.0695 7.4H38.7095V8.6H39.0695V7.4ZM39.3095 8V1.04H38.1095V8H39.3095ZM38.7095 1.64H40.0295V0.439999H38.7095V1.64ZM40.0295 1.64C40.9214 1.64 41.4914 1.79804 41.827 2.02739L42.504 1.03661C41.8797 0.609955 41.0257 0.439999 40.0295 0.439999V1.64ZM41.8308 2.02997C42.16 2.25121 42.2975 2.51609 42.2975 2.876H43.4975C43.4975 2.09991 43.1471 1.46879 42.5002 1.03403L41.8308 2.02997ZM42.2975 2.876C42.2975 3.09523 42.2285 3.28547 42.0709 3.46849L42.9802 4.25151C43.3186 3.85853 43.4975 3.39277 43.4975 2.876H42.2975ZM42.0764 3.46218C41.8859 3.67721 41.6605 3.84187 41.395 3.95919L41.88 5.05681C42.3025 4.87013 42.6691 4.60279 42.9747 4.25782L42.0764 3.46218ZM51.077 1.04H51.677V0.439999H51.077V1.04ZM51.077 1.4V2H51.677V1.4H51.077ZM48.557 1.4V0.8H47.957V1.4H48.557ZM48.557 8V8.6H49.157V8H48.557ZM48.197 8H47.597V8.6H48.197V8ZM48.197 1.4H48.797V0.8H48.197V1.4ZM45.677 1.4H45.077V2H45.677V1.4ZM45.677 1.04V0.439999H45.077V1.04H45.677ZM50.477 1.04V1.4H51.677V1.04H50.477ZM51.077 0.8H48.557V2H51.077V0.8ZM47.957 1.4V8H49.157V1.4H47.957ZM48.557 7.4H48.197V8.6H48.557V7.4ZM48.797 8V1.4H47.597V8H48.797ZM48.197 0.8H45.677V2H48.197V0.8ZM46.277 1.4V1.04H45.077V1.4H46.277ZM45.677 1.64H51.077V0.439999H45.677V1.64ZM54.1398 8H53.5398V8.6H54.1398V8ZM54.1398 1.04V0.439999H53.5398V1.04H54.1398ZM57.5958 1.532L57.2573 2.0274L57.2611 2.02997L57.5958 1.532ZM57.4278 4.352L57.1567 3.81678L55.8935 4.45676L57.2319 4.91911L57.4278 4.352ZM58.4118 5.036L57.9227 5.38355L57.9272 5.38968L58.4118 5.036ZM58.0158 7.472L58.3745 7.95298L58.3758 7.952L58.0158 7.472ZM57.6438 7.256L57.3651 6.72466L57.3615 6.72659L57.6438 7.256ZM58.0998 5.264L57.5902 5.58078L57.5942 5.58703L58.0998 5.264ZM57.2478 4.616L57.4482 4.05041L57.4441 4.04901L57.2478 4.616ZM56.6238 4.4L56.3467 3.86785L55.1112 4.51133L56.4276 4.96699L56.6238 4.4ZM57.1998 4.1L56.923 3.56767L56.9227 3.56785L57.1998 4.1ZM57.7278 3.632L57.2457 3.27486L57.2434 3.27799L57.7278 3.632ZM57.2478 1.76L57.5162 1.22334L57.5162 1.22334L57.2478 1.76ZM54.4998 1.4V0.8H53.8998V1.4H54.4998ZM54.4998 7.64H53.8998V8.24H54.4998V7.64ZM55.8678 7.4H54.1398V8.6H55.8678V7.4ZM54.7398 8V1.04H53.5398V8H54.7398ZM54.1398 1.64H55.4598V0.439999H54.1398V1.64ZM55.4598 1.64C56.3517 1.64 56.9217 1.79804 57.2573 2.02739L57.9344 1.03661C57.31 0.609955 56.456 0.439999 55.4598 0.439999V1.64ZM57.2611 2.02997C57.5903 2.25121 57.7278 2.51609 57.7278 2.876H58.9278C58.9278 2.09991 58.5774 1.46879 57.9305 1.03403L57.2611 2.02997ZM57.7278 2.876C57.7278 3.12586 57.6736 3.3065 57.5906 3.44264C57.5078 3.5784 57.3741 3.70664 57.1567 3.81678L57.699 4.88722C58.0816 4.69336 58.3979 4.4236 58.6151 4.06736C58.8321 3.7115 58.9278 3.30614 58.9278 2.876H57.7278ZM57.2319 4.91911C57.5833 5.04051 57.7955 5.20438 57.9227 5.38352L58.901 4.68848C58.5962 4.25961 58.1523 3.96749 57.6238 3.78489L57.2319 4.91911ZM57.9272 5.38968C58.0629 5.57564 58.1358 5.79373 58.1358 6.068H59.3358C59.3358 5.55827 59.1928 5.08836 58.8965 4.68232L57.9272 5.38968ZM58.1358 6.068C58.1358 6.44611 57.9921 6.73978 57.6558 6.992L58.3758 7.952C58.9996 7.48422 59.3358 6.84189 59.3358 6.068H58.1358ZM57.6571 6.99102C57.3359 7.23058 56.7734 7.4 55.8678 7.4V8.6C56.8823 8.6 57.7518 8.41742 58.3745 7.95298L57.6571 6.99102ZM55.8678 8.24C56.6422 8.24 57.3375 8.09939 57.9262 7.78541L57.3615 6.72659C56.9902 6.92461 56.5015 7.04 55.8678 7.04V8.24ZM57.9226 7.78733C58.2442 7.61859 58.5155 7.38715 58.7037 7.08175C58.8924 6.77542 58.9758 6.42989 58.9758 6.068H57.7758C57.7758 6.24211 57.7373 6.36258 57.682 6.45225C57.6262 6.54285 57.5315 6.6374 57.3651 6.72467L57.9226 7.78733ZM58.9758 6.068C58.9758 5.66992 58.8286 5.29026 58.6055 4.94097L57.5942 5.58703C57.7391 5.81374 57.7758 5.97008 57.7758 6.068H58.9758ZM58.6094 4.94724C58.3418 4.51674 57.9378 4.22385 57.4482 4.05042L57.0475 5.18158C57.3258 5.28015 57.4899 5.41926 57.5903 5.58076L58.6094 4.94724ZM57.4441 4.04901L56.8201 3.83301L56.4276 4.96699L57.0516 5.18299L57.4441 4.04901ZM56.901 4.93215L57.477 4.63215L56.9227 3.56785L56.3467 3.86785L56.901 4.93215ZM57.4767 4.63233C57.7697 4.47996 58.0136 4.25795 58.2123 3.98601L57.2434 3.27799C57.1381 3.42205 57.03 3.51204 56.923 3.56767L57.4767 4.63233ZM58.21 3.98914C58.4521 3.66223 58.5678 3.28285 58.5678 2.876H57.3678C57.3678 3.04515 57.3236 3.16977 57.2457 3.27486L58.21 3.98914ZM58.5678 2.876C58.5678 2.52504 58.4829 2.18961 58.292 1.89372C58.1025 1.6 57.8319 1.38121 57.5162 1.22334L56.9795 2.29666C57.1438 2.37879 57.2332 2.466 57.2837 2.54428C57.3328 2.62039 57.3678 2.72296 57.3678 2.876H58.5678ZM57.5162 1.22334C56.9302 0.930362 56.2358 0.8 55.4598 0.8V2C56.1078 2 56.6055 2.10964 56.9795 2.29666L57.5162 1.22334ZM55.4598 0.8H54.4998V2H55.4598V0.8ZM53.8998 1.4V7.64H55.0998V1.4H53.8998ZM54.4998 8.24H55.8678V7.04H54.4998V8.24ZM65.7574 1.412L65.5727 1.98287L65.5804 1.98535L65.5881 1.98762L65.7574 1.412ZM63.7414 1.412L63.9107 1.98762L63.9185 1.98535L63.9261 1.98287L63.7414 1.412ZM62.9854 1.88L62.5612 1.45574L62.5612 1.45574L62.9854 1.88ZM62.4814 2.876L63.0622 3.02658L63.0629 3.02401L62.4814 2.876ZM62.4814 6.176L61.9 6.32401L61.9006 6.32658L62.4814 6.176ZM62.9854 7.172L62.5538 7.58876L62.5611 7.59633L62.5687 7.60364L62.9854 7.172ZM63.7414 7.64L63.5567 8.21087L63.5644 8.21335L63.5721 8.21562L63.7414 7.64ZM65.7574 7.64L65.9267 8.21562L65.9345 8.21335L65.9421 8.21087L65.7574 7.64ZM66.5014 7.172L66.9257 7.59626L66.9257 7.59626L66.5014 7.172ZM67.0174 6.176L67.5982 6.32658L67.5989 6.32401L67.0174 6.176ZM67.0174 2.876L66.436 3.02401L66.4366 3.02658L67.0174 2.876ZM66.5014 1.88L66.0698 2.29676L66.0771 2.30433L66.0847 2.31164L66.5014 1.88ZM66.8974 7.268L66.4199 6.90478L66.4199 6.90478L66.8974 7.268ZM62.6014 7.268L63.079 6.90478L63.079 6.90478L62.6014 7.268ZM62.6014 1.772L62.1239 1.40878L62.1239 1.40878L62.6014 1.772ZM66.8974 1.772L67.375 1.40878L67.375 1.40878L66.8974 1.772ZM65.9421 0.841133C65.5919 0.727834 65.1891 0.68 64.7494 0.68V1.88C65.1097 1.88 65.3789 1.92017 65.5727 1.98287L65.9421 0.841133ZM64.7494 0.68C64.3097 0.68 63.9069 0.727834 63.5567 0.841133L63.9261 1.98287C64.1199 1.92017 64.3891 1.88 64.7494 1.88V0.68ZM63.5721 0.83638C63.1896 0.948878 62.8529 1.16399 62.5612 1.45574L63.4097 2.30426C63.582 2.13201 63.7492 2.03512 63.9107 1.98762L63.5721 0.83638ZM62.5612 1.45574C62.2348 1.78212 62.0277 2.22622 61.9 2.72799L63.0629 3.02401C63.1592 2.64578 63.2881 2.42588 63.4097 2.30426L62.5612 1.45574ZM61.9006 2.72542C61.7713 3.2242 61.7134 3.82733 61.7134 4.52H62.9134C62.9134 3.88467 62.9675 3.3918 63.0622 3.02658L61.9006 2.72542ZM61.7134 4.52C61.7134 5.21317 61.7714 5.81898 61.9 6.32401L63.0629 6.02799C62.9674 5.65302 62.9134 5.15483 62.9134 4.52H61.7134ZM61.9006 6.32658C62.0291 6.82208 62.2356 7.25922 62.5538 7.58876L63.4171 6.75524C63.2872 6.62078 63.1578 6.39392 63.0622 6.02542L61.9006 6.32658ZM62.5687 7.60364C62.8579 7.88293 63.1872 8.09132 63.5567 8.21087L63.9261 7.06913C63.7516 7.01268 63.5769 6.90907 63.4022 6.74036L62.5687 7.60364ZM63.5721 8.21562C63.9165 8.31691 64.3136 8.36 64.7494 8.36V7.16C64.3852 7.16 64.1104 7.12309 63.9107 7.06438L63.5721 8.21562ZM64.7494 8.36C65.1852 8.36 65.5824 8.31691 65.9267 8.21562L65.5881 7.06438C65.3885 7.12309 65.1136 7.16 64.7494 7.16V8.36ZM65.9421 8.21087C66.3139 8.0906 66.6419 7.88003 66.9257 7.59626L66.0772 6.74774C65.9129 6.91197 65.745 7.0134 65.5727 7.06913L65.9421 8.21087ZM66.9257 7.59626C67.2558 7.26613 67.4687 6.82626 67.5982 6.32658L66.4366 6.02542C66.3422 6.38974 66.211 6.61387 66.0772 6.74774L66.9257 7.59626ZM67.5989 6.32401C67.7274 5.81898 67.7854 5.21317 67.7854 4.52H66.5854C66.5854 5.15483 66.5314 5.65302 66.436 6.02799L67.5989 6.32401ZM67.7854 4.52C67.7854 3.82733 67.7275 3.2242 67.5982 2.72542L66.4366 3.02658C66.5313 3.3918 66.5854 3.88467 66.5854 4.52H67.7854ZM67.5989 2.72799C67.4701 2.22201 67.2567 1.77519 66.9182 1.44836L66.0847 2.31164C66.2102 2.43281 66.3408 2.64998 66.436 3.02401L67.5989 2.72799ZM66.9331 1.46324C66.647 1.1669 66.3115 0.949554 65.9267 0.83638L65.5881 1.98762C65.7473 2.03444 65.9079 2.1291 66.0698 2.29676L66.9331 1.46324ZM66.4199 6.90478C66.1422 7.2698 65.6419 7.52 64.7494 7.52V8.72C65.857 8.72 66.7886 8.4022 67.375 7.63122L66.4199 6.90478ZM64.7494 7.52C63.857 7.52 63.3566 7.2698 63.079 6.90478L62.1239 7.63122C62.7102 8.4022 63.6419 8.72 64.7494 8.72V7.52ZM63.079 6.90478C62.7675 6.49526 62.5534 5.7426 62.5534 4.52H61.3534C61.3534 5.8254 61.5713 6.90474 62.1239 7.63122L63.079 6.90478ZM62.5534 4.52C62.5534 3.2974 62.7675 2.54474 63.079 2.13522L62.1239 1.40878C61.5713 2.13526 61.3534 3.2146 61.3534 4.52H62.5534ZM63.079 2.13522C63.3566 1.7702 63.857 1.52 64.7494 1.52V0.32C63.6419 0.32 62.7102 0.637797 62.1239 1.40878L63.079 2.13522ZM64.7494 1.52C65.6419 1.52 66.1422 1.7702 66.4199 2.13522L67.375 1.40878C66.7886 0.637797 65.857 0.32 64.7494 0.32V1.52ZM66.4199 2.13522C66.7313 2.54474 66.9454 3.2974 66.9454 4.52H68.1454C68.1454 3.2146 67.9275 2.13526 67.375 1.40878L66.4199 2.13522ZM66.9454 4.52C66.9454 5.7426 66.7313 6.49526 66.4199 6.90478L67.375 7.63122C67.9275 6.90474 68.1454 5.8254 68.1454 4.52H66.9454ZM71.8468 7.64V7.04H71.2468V7.64H71.8468ZM75.7588 7.64V8.24H76.6653L76.3111 7.40558L75.7588 7.64ZM73.2988 1.844L73.8511 1.60958L73.2991 0.309079L72.7466 1.60934L73.2988 1.844ZM70.6828 8V8.6H71.0797L71.235 8.23466L70.6828 8ZM70.2988 8L69.7463 7.76591L69.3929 8.6H70.2988V8ZM73.2988 0.92L73.8512 0.68591L73.2988 -0.617874L72.7463 0.68591L73.2988 0.92ZM76.2988 8V8.6H77.2047L76.8512 7.76591L76.2988 8ZM71.8468 8H71.2468V8.6H71.8468V8ZM71.8468 8.24H75.7588V7.04H71.8468V8.24ZM76.3111 7.40558L73.8511 1.60958L72.7465 2.07842L75.2065 7.87442L76.3111 7.40558ZM72.7466 1.60934L70.1306 7.76534L71.235 8.23466L73.851 2.07866L72.7466 1.60934ZM70.6828 7.4H70.2988V8.6H70.6828V7.4ZM70.8512 8.23409L73.8512 1.15409L72.7463 0.68591L69.7463 7.76591L70.8512 8.23409ZM72.7463 1.15409L75.7463 8.23409L76.8512 7.76591L73.8512 0.68591L72.7463 1.15409ZM76.2988 7.4H71.8468V8.6H76.2988V7.4ZM72.4468 8V7.64H71.2468V8H72.4468ZM82.2758 4.508L82.0333 3.95919L81.4728 4.20686L81.7323 4.76204L82.2758 4.508ZM83.9078 8V8.6H84.8505L84.4514 7.74596L83.9078 8ZM83.5118 8L82.9681 8.25373L83.1297 8.6H83.5118V8ZM81.8318 4.4L81.5635 3.86335L81.0411 4.12452L81.2881 4.65373L81.8318 4.4ZM82.0358 4.304L82.2895 4.84771L82.2969 4.84428L82.3041 4.84066L82.0358 4.304ZM82.2998 4.172L82.5681 4.70866L82.6016 4.69195L82.6326 4.67123L82.2998 4.172ZM82.5398 4.016L82.8643 4.52071L82.8643 4.52071L82.5398 4.016ZM82.7918 3.812L83.2434 4.2071L83.2548 4.19405L83.2654 4.18036L82.7918 3.812ZM82.9718 3.572L82.4918 3.21196L82.4866 3.2191L82.9718 3.572ZM83.1278 3.26L83.7048 3.42486L83.7076 3.4146L83.1278 3.26ZM82.4558 1.76L82.7241 1.22334L82.7241 1.22334L82.4558 1.76ZM79.7078 1.4V0.8H79.1078V1.4H79.7078ZM79.7078 8V8.6H80.3078V8H79.7078ZM79.3478 8H78.7478V8.6H79.3478V8ZM79.3478 1.04V0.439999H78.7478V1.04H79.3478ZM82.8038 1.532L82.4653 2.0274L82.4691 2.02997L82.8038 1.532ZM83.1638 3.86L83.613 4.25786L83.6185 4.25151L83.1638 3.86ZM81.7323 4.76204L83.3643 8.25404L84.4514 7.74596L82.8194 4.25396L81.7323 4.76204ZM83.9078 7.4H83.5118V8.6H83.9078V7.4ZM84.0555 7.74627L82.3755 4.14627L81.2881 4.65373L82.9681 8.25373L84.0555 7.74627ZM82.1001 4.93665C82.0983 4.93756 82.1007 4.93636 82.1115 4.93122C82.1209 4.92677 82.1337 4.92071 82.1503 4.91289C82.1834 4.89729 82.2298 4.87561 82.2895 4.84771L81.7821 3.76029C81.6675 3.81376 81.5889 3.85065 81.5635 3.86335L82.1001 4.93665ZM82.3041 4.84066C82.4321 4.77666 82.5201 4.73266 82.5681 4.70866L82.0315 3.63534C81.9835 3.65934 81.8955 3.70334 81.7675 3.76734L82.3041 4.84066ZM82.6326 4.67123C82.6761 4.64225 82.7524 4.59261 82.8643 4.52071L82.2154 3.51129C82.1032 3.58339 82.0195 3.63775 81.967 3.67277L82.6326 4.67123ZM82.8643 4.52071C83.0001 4.4334 83.1356 4.33025 83.2434 4.2071L82.3403 3.4169C82.3404 3.41672 82.3383 3.41919 82.333 3.4242C82.3277 3.42917 82.32 3.43601 82.3093 3.44465C82.2876 3.4622 82.257 3.48452 82.2154 3.51129L82.8643 4.52071ZM83.2654 4.18036C83.3261 4.10242 83.39 4.01716 83.4571 3.9249L82.4866 3.2191C82.4257 3.30284 82.3696 3.37758 82.3182 3.44364L83.2654 4.18036ZM83.4518 3.932C83.5664 3.77921 83.652 3.60939 83.7047 3.42483L82.5509 3.09517C82.5396 3.13461 82.5212 3.17279 82.4918 3.212L83.4518 3.932ZM83.7076 3.4146C83.7542 3.23964 83.7758 3.05929 83.7758 2.876H82.5758C82.5758 2.96471 82.5654 3.04036 82.5481 3.1054L83.7076 3.4146ZM83.7758 2.876C83.7758 2.52504 83.6909 2.18961 83.5 1.89372C83.3105 1.6 83.0399 1.38121 82.7241 1.22334L82.1875 2.29666C82.3518 2.37879 82.4411 2.466 82.4916 2.54428C82.5407 2.62039 82.5758 2.72296 82.5758 2.876H83.7758ZM82.7241 1.22334C82.1382 0.930362 81.4438 0.8 80.6678 0.8V2C81.3158 2 81.8135 2.10964 82.1875 2.29666L82.7241 1.22334ZM80.6678 0.8H79.7078V2H80.6678V0.8ZM79.1078 1.4V8H80.3078V1.4H79.1078ZM79.7078 7.4H79.3478V8.6H79.7078V7.4ZM79.9478 8V1.04H78.7478V8H79.9478ZM79.3478 1.64H80.6678V0.439999H79.3478V1.64ZM80.6678 1.64C81.5597 1.64 82.1297 1.79804 82.4653 2.02739L83.1423 1.03661C82.518 0.609955 81.664 0.439999 80.6678 0.439999V1.64ZM82.4691 2.02997C82.7983 2.25121 82.9358 2.51609 82.9358 2.876H84.1358C84.1358 2.09991 83.7854 1.46879 83.1385 1.03403L82.4691 2.02997ZM82.9358 2.876C82.9358 3.09523 82.8668 3.28547 82.7092 3.46849L83.6185 4.25151C83.9569 3.85853 84.1358 3.39277 84.1358 2.876H82.9358ZM82.7147 3.46218C82.5242 3.67721 82.2988 3.84187 82.0333 3.95919L82.5183 5.05681C82.9408 4.87013 83.3074 4.60279 83.613 4.25782L82.7147 3.46218ZM87.2153 8H86.6153V8.6H87.2153V8ZM87.2153 1.04V0.439999H86.6153V1.04H87.2153ZM90.9593 1.976L90.5613 2.42501L90.5613 2.42501L90.9593 1.976ZM90.9593 7.064L90.5613 6.61499L90.5613 6.61499L90.9593 7.064ZM90.6953 6.812L90.3034 6.35764L90.3006 6.3601L90.6953 6.812ZM90.6953 2.228L90.3006 2.67991L90.3034 2.68235L90.6953 2.228ZM87.5753 1.4V0.8H86.9753V1.4H87.5753ZM87.5753 7.64H86.9753V8.24H87.5753V7.64ZM88.1273 7.4H87.2153V8.6H88.1273V7.4ZM87.8153 8V1.04H86.6153V8H87.8153ZM87.2153 1.64H88.1273V0.439999H87.2153V1.64ZM88.1273 1.64C89.2039 1.64 89.9933 1.92151 90.5613 2.42501L91.3573 1.52699C90.5173 0.782493 89.4187 0.439999 88.1273 0.439999V1.64ZM90.5613 2.42501C91.1182 2.91862 91.4153 3.59311 91.4153 4.52H92.6153C92.6153 3.30289 92.2084 2.28138 91.3573 1.52699L90.5613 2.42501ZM91.4153 4.52C91.4153 5.44689 91.1182 6.12138 90.5613 6.61499L91.3573 7.51301C92.2084 6.75862 92.6153 5.73711 92.6153 4.52H91.4153ZM90.5613 6.61499C89.9933 7.11849 89.2039 7.4 88.1273 7.4V8.6C89.4187 8.6 90.5173 8.25751 91.3573 7.51301L90.5613 6.61499ZM88.1273 8.24C89.3097 8.24 90.3203 7.93617 91.09 7.2639L90.3006 6.3601C89.8063 6.79183 89.1049 7.04 88.1273 7.04V8.24ZM91.0872 7.26635C91.8805 6.58215 92.2553 5.64053 92.2553 4.52H91.0553C91.0553 5.35147 90.7902 5.93785 90.3034 6.35765L91.0872 7.26635ZM92.2553 4.52C92.2553 3.39947 91.8805 2.45785 91.0872 1.77365L90.3034 2.68235C90.7902 3.10215 91.0553 3.68853 91.0553 4.52H92.2553ZM91.09 1.7761C90.3203 1.10383 89.3097 0.8 88.1273 0.8V2C89.1049 2 89.8063 2.24817 90.3006 2.6799L91.09 1.7761ZM88.1273 0.8H87.5753V2H88.1273V0.8ZM86.9753 1.4V7.64H88.1753V1.4H86.9753ZM87.5753 8.24H88.1273V7.04H87.5753V8.24ZM95.3361 7.304V6.704H94.7361V7.304H95.3361ZM96.1281 7.304H96.7281V6.704H96.1281V7.304ZM96.1281 8V8.6H96.7281V8H96.1281ZM95.3361 8H94.7361V8.6H95.3361V8ZM95.3361 7.904H96.1281V6.704H95.3361V7.904ZM95.5281 7.304V8H96.7281V7.304H95.5281ZM96.1281 7.4H95.3361V8.6H96.1281V7.4ZM95.9361 8V7.304H94.7361V8H95.9361ZM101.716 4.244L101.196 3.94422L101.023 4.24356L101.196 4.54311L101.716 4.244ZM103.876 8V8.6H104.913L104.396 7.70089L103.876 8ZM103.456 8L102.936 8.30026L103.11 8.6H103.456V8ZM101.5 4.616L102.019 4.31574L101.5 3.41703L100.98 4.31574L101.5 4.616ZM99.5437 8V8.6H99.8899L100.063 8.30026L99.5437 8ZM99.1237 8L98.6036 7.70089L98.0865 8.6H99.1237V8ZM101.284 4.244L101.804 4.54311L101.976 4.24356L101.803 3.94422L101.284 4.244ZM99.4357 1.04V0.439999H98.397L98.916 1.33978L99.4357 1.04ZM99.8557 1.04L100.375 0.739723L100.202 0.439999H99.8557V1.04ZM101.5 3.884L100.98 4.18428L101.5 5.0829L102.019 4.18428L101.5 3.884ZM103.144 1.04V0.439999H102.798L102.624 0.739723L103.144 1.04ZM103.564 1.04L104.083 1.33978L104.602 0.439999H103.564V1.04ZM101.196 4.54311L103.356 8.29911L104.396 7.70089L102.236 3.94489L101.196 4.54311ZM103.876 7.4H103.456V8.6H103.876V7.4ZM103.975 7.69974L102.019 4.31574L100.98 4.91626L102.936 8.30026L103.975 7.69974ZM100.98 4.31574L99.0243 7.69974L100.063 8.30026L102.019 4.91626L100.98 4.31574ZM99.5437 7.4H99.1237V8.6H99.5437V7.4ZM99.6438 8.29911L101.804 4.54311L100.764 3.94489L98.6036 7.70089L99.6438 8.29911ZM101.803 3.94422L99.9555 0.740222L98.916 1.33978L100.764 4.54378L101.803 3.94422ZM99.4357 1.64H99.8557V0.439999H99.4357V1.64ZM99.3363 1.34028L100.98 4.18428L102.019 3.58372L100.375 0.739723L99.3363 1.34028ZM102.019 4.18428L103.663 1.34028L102.624 0.739723L100.98 3.58372L102.019 4.18428ZM103.144 1.64H103.564V0.439999H103.144V1.64ZM103.044 0.740222L101.196 3.94422L102.235 4.54378L104.083 1.33978L103.044 0.740222ZM107.488 1.04V0.439999H106.888V1.04H107.488ZM112.132 1.04L112.684 1.27395L113.037 0.439999H112.132V1.04ZM109.312 7.7L108.759 7.46605L108.712 7.57821V7.7H109.312ZM109.312 10.4V11H109.912V10.4H109.312ZM108.952 10.4H108.352V11H108.952V10.4ZM108.952 7.7H109.552V7.57821L109.504 7.46605L108.952 7.7ZM106.132 1.04V0.439999H105.226L105.579 1.27395L106.132 1.04ZM106.516 1.04L107.068 0.805338L106.913 0.439999H106.516V1.04ZM109.132 7.196L108.58 7.43066L109.132 8.73092L109.684 7.43042L109.132 7.196ZM111.592 1.4L112.144 1.63442L112.498 0.8H111.592V1.4ZM107.488 1.4H106.888V2H107.488V1.4ZM107.488 1.64H112.132V0.439999H107.488V1.64ZM111.579 0.806053L108.759 7.46605L109.864 7.93395L112.684 1.27395L111.579 0.806053ZM108.712 7.7V10.4H109.912V7.7H108.712ZM109.312 9.8H108.952V11H109.312V9.8ZM109.552 10.4V7.7H108.352V10.4H109.552ZM109.504 7.46605L106.684 0.806053L105.579 1.27395L108.399 7.93395L109.504 7.46605ZM106.132 1.64H106.516V0.439999H106.132V1.64ZM105.964 1.27466L108.58 7.43066L109.684 6.96134L107.068 0.805338L105.964 1.27466ZM109.684 7.43042L112.144 1.63442L111.039 1.16558L108.579 6.96158L109.684 7.43042ZM111.592 0.8H107.488V2H111.592V0.8ZM108.088 1.4V1.04H106.888V1.4H108.088ZM118.35 1.4L118.869 1.70032L119.39 0.8H118.35V1.4ZM114.606 1.4H114.006V2H114.606V1.4ZM114.606 1.04V0.439999H114.006V1.04H114.606ZM118.974 1.04L119.493 1.34032L120.014 0.439999H118.974V1.04ZM115.158 7.64L114.639 7.33968L114.118 8.24H115.158V7.64ZM119.022 7.64H119.622V7.04H119.022V7.64ZM119.022 8V8.6H119.622V8H119.022ZM114.534 8L114.015 7.69968L113.494 8.6H114.534V8ZM118.35 0.8H114.606V2H118.35V0.8ZM115.206 1.4V1.04H114.006V1.4H115.206ZM114.606 1.64H118.974V0.439999H114.606V1.64ZM118.455 0.739676L114.639 7.33968L115.677 7.94032L119.493 1.34032L118.455 0.739676ZM115.158 8.24H119.022V7.04H115.158V8.24ZM118.422 7.64V8H119.622V7.64H118.422ZM119.022 7.4H114.534V8.6H119.022V7.4ZM115.053 8.30032L118.869 1.70032L117.831 1.09968L114.015 7.69968L115.053 8.30032Z" fill="white" mask="url(#path-1-outside-1_100_9841)"/>
</svg>
